<?xml version="1.0" standalone="no"?>
<!DOCTYPE svg PUBLIC "-//W3C//DTD SVG 20010904//EN"
 "http://www.w3.org/TR/2001/REC-SVG-20010904/DTD/svg10.dtd">
<svg version="1.0" xmlns="http://www.w3.org/2000/svg"
 width="366.000000pt" height="366.000000pt" viewBox="0 0 366.000000 366.000000"
 preserveAspectRatio="xMidYMid meet">

<g transform="translate(0.000000,366.000000) scale(0.100000,-0.100000)"
fill="#000000" stroke="none">
<path d="M1610 3649 c-435 -56 -847 -273 -1137 -599 -256 -287 -412 -642 -454
-1025 -17 -161 -6 -400 25 -551 164 -786 797 -1363 1596 -1455 144 -16 394 -7
535 21 658 129 1186 594 1394 1227 71 214 86 316 86 568 0 191 -3 235 -23 335
-52 257 -158 507 -298 706 -101 143 -166 217 -284 321 -348 308 -770 466
-1233 462 -78 -1 -171 -5 -207 -10z m588 -53 c758 -166 1307 -753 1418 -1516
20 -139 15 -428 -9 -560 -125 -669 -606 -1209 -1251 -1405 -172 -52 -260 -66
-461 -72 -203 -6 -336 7 -497 48 -557 141 -1028 553 -1232 1076 -86 221 -116
373 -123 618 -9 315 44 567 178 841 243 500 723 868 1269 973 149 29 153 29
380 26 180 -2 220 -5 328 -29z"/>
<path d="M1662 3293 l3 -158 28 -3 27 -3 0 65 c0 36 3 67 8 69 4 3 20 3 36 0
21 -4 41 -23 75 -69 37 -52 51 -64 73 -64 16 0 28 5 28 11 0 13 -34 63 -69
103 -17 19 -22 30 -14 33 7 2 23 13 37 24 37 29 37 99 0 128 -23 18 -41 21
-131 21 l-104 0 3 -157z m171 108 c33 -13 41 -47 16 -72 -14 -14 -33 -19 -74
-19 l-55 0 0 44 c0 38 3 45 23 49 40 8 65 7 90 -2z"/>
<path d="M2066 3423 c-18 -61 -57 -276 -52 -288 3 -8 14 -15 25 -15 15 0 22
12 33 58 9 34 20 56 27 54 7 -1 39 -5 71 -9 56 -5 60 -4 89 25 25 24 31 39 31
72 0 57 -32 84 -120 104 -87 20 -97 20 -104 -1z m130 -58 c31 -13 35 -18 32
-46 -4 -42 -24 -53 -82 -45 l-48 8 6 40 c4 23 9 45 12 50 8 12 41 10 80 -7z"/>
<path d="M1354 3388 c-5 -7 -17 -84 -29 -171 -23 -169 -21 -181 24 -157 15 8
21 21 21 45 0 33 2 35 52 50 73 21 91 19 110 -13 14 -24 22 -28 47 -24 36 5
36 6 -42 114 -117 163 -121 167 -149 168 -15 0 -30 -6 -34 -12z m112 -151 c8
-24 6 -25 -44 -33 -41 -6 -42 -6 -42 22 0 16 3 47 7 68 l6 40 34 -40 c18 -21
36 -47 39 -57z"/>
<path d="M2405 3337 c-51 -142 -95 -275 -95 -284 0 -13 38 -28 47 -19 9 9 95
258 97 280 1 22 -42 43 -49 23z"/>
<path d="M1048 3284 c-16 -8 -28 -20 -28 -27 0 -7 11 -53 25 -102 14 -50 25
-97 25 -105 0 -8 -37 22 -82 67 l-83 82 -37 -20 c-43 -22 -45 -30 -20 -67 10
-15 44 -73 76 -129 32 -57 60 -103 63 -103 2 0 13 5 24 10 18 10 18 13 -11 63
-17 29 -45 79 -61 112 l-31 60 95 -94 c85 -84 97 -92 116 -82 11 7 21 16 21
21 0 8 -32 130 -57 223 -13 44 5 20 113 -160 14 -22 54 -22 54 1 -1 22 -146
261 -160 263 -8 1 -27 -4 -42 -13z"/>
<path d="M2536 3275 c-4 -10 5 -22 27 -35 17 -11 35 -20 40 -20 15 0 5 -27
-52 -140 l-60 -117 26 -12 c14 -6 27 -10 28 -9 2 2 28 53 59 115 30 61 60 114
65 118 6 3 27 -4 48 -15 l38 -20 9 20 c5 11 7 22 5 24 -9 9 -209 106 -218 106
-5 0 -11 -7 -15 -15z"/>
<path d="M2779 2973 c-79 -42 -146 -77 -148 -79 -2 -2 4 -13 14 -24 17 -19 18
-19 55 0 l37 19 52 -47 52 -47 -13 -39 c-11 -34 -10 -40 7 -52 27 -20 31 -18
44 29 7 23 30 91 52 150 21 60 39 114 39 122 0 7 -11 20 -23 28 -23 15 -31 12
-168 -60z m106 -63 c-9 -27 -20 -52 -25 -55 -9 -6 -70 42 -70 56 0 13 104 70
108 59 2 -6 -4 -32 -13 -60z"/>
<path d="M1811 2963 c-8 -21 -46 -90 -84 -153 -65 -106 -71 -120 -75 -180 -3
-56 0 -70 20 -100 13 -19 39 -45 58 -58 30 -21 45 -23 106 -20 83 4 129 31
159 95 37 78 26 121 -79 287 -31 49 -61 107 -68 128 -6 21 -14 38 -18 38 -3 0
-12 -17 -19 -37z m149 -250 c47 -94 23 -194 -48 -201 -31 -3 -32 -2 -32 32 0
33 2 36 30 36 20 0 30 5 30 15 0 8 -9 15 -20 15 -15 0 -20 7 -21 28 l-1 27
-11 -27 c-12 -32 -32 -37 -40 -10 -2 9 -8 25 -12 35 -4 10 -3 17 4 17 7 0 16
-10 21 -22 7 -19 9 -19 9 -5 1 11 13 22 32 29 32 11 32 15 12 83 -10 35 21 1
47 -52z m-202 -68 c1 -30 -2 -35 -22 -35 -30 0 -33 4 -28 40 3 23 9 30 27 30
18 0 22 -6 23 -35z m65 18 c2 -10 8 -25 11 -34 6 -12 0 -15 -29 -15 -38 1 -39
3 -25 40 11 30 35 34 43 9z m-73 -108 c0 -13 8 -29 18 -34 14 -9 13 -10 -10
-11 -25 0 -28 3 -28 35 0 19 5 35 10 35 6 0 10 -11 10 -25z m60 -10 c0 -19 -4
-35 -10 -35 -5 0 -10 16 -10 35 0 19 5 35 10 35 6 0 10 -16 10 -35z m47 28
c-18 -5 -18 -5 0 -19 13 -9 14 -13 4 -14 -8 0 -20 -8 -27 -17 -12 -16 -13 -14
-14 20 0 34 2 37 28 36 18 -1 21 -3 9 -6z"/>
<path d="M1920 2629 c0 -5 5 -7 10 -4 6 3 10 8 10 11 0 2 -4 4 -10 4 -5 0 -10
-5 -10 -11z"/>
<path d="M1908 2563 c6 -2 18 -2 25 0 6 3 1 5 -13 5 -14 0 -19 -2 -12 -5z"/>
<path d="M1905 2530 c4 -6 11 -8 16 -5 14 9 11 15 -7 15 -8 0 -12 -5 -9 -10z"/>
<path d="M600 2945 l-22 -24 59 -128 c33 -70 63 -138 67 -151 9 -26 28 -29 46
-7 11 13 10 22 -4 52 -19 39 -22 32 46 107 26 29 28 29 68 17 37 -11 44 -10
61 5 11 10 16 21 12 25 -8 7 -205 89 -275 114 -34 13 -37 12 -58 -10z m164
-96 c10 -9 -39 -69 -56 -69 -7 0 -58 99 -58 113 0 8 101 -31 114 -44z"/>
<path d="M3032 2718 c-72 -46 -132 -88 -132 -94 0 -6 6 -16 13 -23 10 -8 37 4
111 51 53 33 99 58 103 55 3 -4 -33 -47 -81 -95 l-87 -89 20 -24 19 -24 99 32
c180 58 183 55 38 -32 -94 -57 -107 -72 -82 -93 9 -8 43 9 132 64 66 42 126
79 134 84 12 6 10 14 -8 44 -13 20 -28 36 -35 36 -7 0 -44 -11 -82 -23 -38
-13 -84 -27 -102 -30 -32 -7 -33 -6 -17 15 8 13 42 51 76 85 63 66 66 76 31
121 l-17 22 -133 -82z"/>
<path d="M390 2674 c-63 -53 -80 -126 -40 -169 13 -14 31 -27 41 -30 26 -9 80
19 124 65 40 41 62 49 83 28 37 -37 -10 -118 -67 -118 -34 0 -54 -36 -30 -51
59 -37 162 57 162 147 0 62 -73 111 -125 83 -13 -6 -44 -31 -70 -55 -51 -47
-68 -53 -89 -28 -20 24 16 88 53 92 32 4 53 26 44 47 -9 23 -51 18 -86 -11z"/>
<path d="M1567 2518 c7 -39 40 -98 55 -98 14 0 0 59 -24 98 -11 17 -24 32 -29
32 -4 0 -6 -15 -2 -32z"/>
<path d="M1440 2529 c0 -15 56 -66 81 -74 28 -9 35 1 15 20 -9 9 -16 20 -16
24 0 6 -63 41 -75 41 -3 0 -5 -5 -5 -11z"/>
<path d="M1660 2445 c0 -46 17 -95 33 -95 11 0 1 94 -14 121 -15 29 -19 23
-19 -26z"/>
<path d="M1612 2377 c58 -69 96 -130 114 -179 23 -65 19 -76 -23 -81 l-38 -4
39 -1 c30 -2 37 -5 32 -17 -4 -13 -2 -13 14 -5 18 10 18 13 4 63 -20 65 -86
192 -123 233 -48 54 -65 46 -19 -9z"/>
<path d="M1506 2389 c24 -27 67 -49 95 -49 22 0 22 0 3 21 -24 27 -67 49 -95
49 -22 0 -22 0 -3 -21z"/>
<path d="M1740 2385 c-9 -11 -11 -34 -6 -82 4 -37 9 -70 12 -72 13 -13 24 31
24 97 0 72 -7 85 -30 57z"/>
<path d="M1552 2289 c6 -17 53 -45 92 -55 35 -8 33 10 -5 38 -33 24 -93 36
-87 17z"/>
<path d="M1040 1841 c0 -242 -4 -442 -9 -445 -5 -3 -36 -12 -69 -20 l-61 -14
-63 40 c-35 23 -89 65 -120 95 -61 58 -118 88 -186 99 -23 3 -39 10 -36 15 11
18 71 8 123 -21 30 -17 56 -29 57 -27 2 2 -15 30 -36 62 -24 36 -40 72 -40 90
0 17 -5 46 -10 65 -11 45 -35 149 -50 222 -8 43 -19 64 -41 83 -65 54 -69 39
-69 -231 0 -207 2 -239 21 -300 23 -75 135 -316 169 -365 41 -57 114 -92 440
-211 91 -33 203 -80 249 -105 70 -37 91 -44 122 -40 83 11 269 123 269 163 0
19 -148 202 -207 254 -27 25 -78 61 -111 80 -63 36 -75 50 -44 50 9 1 56 2
104 3 82 3 100 -3 53 -17 -11 -3 -2 -4 20 -2 22 2 49 8 60 12 18 7 18 6 6 -9
-7 -9 -25 -18 -40 -18 -21 -1 -22 -3 -5 -6 11 -2 40 2 62 10 43 15 56 7 25
-13 -14 -9 -9 -10 22 -5 22 4 49 12 60 19 11 7 32 16 47 20 39 9 49 -18 46
-112 -3 -82 -7 -87 -55 -70 -14 4 -23 4 -23 -2 0 -6 9 -10 20 -10 24 0 17 -27
-10 -35 -27 -9 -18 -54 18 -86 23 -21 27 -30 19 -39 -9 -10 -7 -12 10 -7 12 2
24 0 27 -7 3 -8 7 -8 13 0 13 18 52 -2 59 -31 7 -28 -7 -50 -37 -58 -13 -4
-22 0 -26 11 -6 14 -7 14 -12 -1 -5 -14 -10 -15 -31 -4 -21 11 -25 19 -22 52
3 39 3 39 -17 21 -31 -28 -26 -54 14 -77 19 -12 33 -24 30 -28 -10 -17 54 -3
83 17 16 12 35 22 41 22 26 0 10 50 -25 76 -34 26 -35 29 -17 41 43 31 53 44
53 68 0 14 -8 29 -20 35 -28 15 -25 28 8 36 29 8 73 32 84 48 20 29 -67 86
-106 68 -17 -7 -15 -10 18 -30 25 -15 36 -28 34 -40 -4 -19 -42 -40 -79 -44
-23 -3 -24 -1 -24 72 -1 114 1 119 39 110 17 -4 41 -12 54 -19 12 -6 22 -8 22
-4 0 4 5 2 12 -5 7 -7 23 -12 37 -12 24 0 24 1 5 14 -29 22 -12 28 29 11 20
-8 44 -15 54 -15 10 1 4 7 -16 16 -50 21 -34 25 33 8 32 -8 63 -13 69 -11 7 3
-5 8 -26 12 -20 4 -39 10 -41 14 -5 7 180 3 204 -5 9 -3 -10 -19 -50 -41 -96
-54 -320 -289 -320 -336 0 -41 183 -153 269 -164 34 -5 51 1 110 35 38 22 132
64 208 92 377 141 435 168 486 225 26 29 135 257 168 350 27 78 27 85 28 323
1 203 -1 243 -13 248 -23 9 -54 -14 -74 -54 -22 -42 -70 -228 -82 -317 -7 -45
-19 -73 -50 -117 -22 -32 -39 -58 -36 -58 3 0 31 14 63 30 55 29 116 39 127
22 3 -5 -22 -14 -54 -20 -63 -11 -104 -36 -180 -108 -25 -24 -74 -61 -110 -82
l-64 -39 -56 13 c-30 7 -61 13 -67 14 -10 0 -13 96 -13 445 l0 445 -47 -1
c-47 0 -47 -1 -25 -16 l22 -15 0 -417 0 -417 -122 -2 c-83 -1 -163 4 -245 17
-105 16 -129 23 -165 50 -48 35 -71 39 -90 13 -15 -20 -62 -52 -78 -52 -15 0
-12 46 5 60 29 24 -23 55 -62 37 -28 -12 -30 -33 -4 -42 13 -4 17 -12 13 -30
-2 -14 -6 -25 -9 -25 -13 0 -83 42 -83 50 0 5 -9 12 -21 15 -14 5 -36 -4 -72
-27 -47 -31 -65 -37 -182 -52 -75 -10 -176 -16 -237 -14 l-108 3 0 416 0 417
23 15 c21 16 21 16 -20 16 l-43 1 0 -439z m427 -437 c-3 -3 -12 -4 -19 -1 -8
3 -5 6 6 6 11 1 17 -2 13 -5z m399 -309 c-6 -24 -31 -44 -42 -32 -3 2 -6 14
-7 26 -2 30 -17 26 -17 -4 0 -29 -12 -32 -34 -9 -20 20 -20 48 -1 64 18 15 49
5 40 -12 -3 -7 2 -3 11 10 17 23 17 23 37 4 14 -15 18 -27 13 -47z"/>
<path d="M1601 2191 c-11 -7 -1 -16 37 -35 55 -28 86 -33 80 -14 -10 28 -94
63 -117 49z"/>
<path d="M480 2163 c-15 -27 -15 -29 15 -48 40 -27 63 -77 74 -161 5 -38 16
-85 24 -104 8 -19 17 -58 21 -87 9 -72 26 -108 94 -199 65 -86 98 -120 153
-152 59 -35 64 -25 15 30 -25 29 -43 54 -40 57 3 3 24 -15 47 -41 41 -46 52
-52 91 -49 18 1 18 3 -5 27 -13 14 -39 35 -57 46 -38 23 -140 174 -154 228
-15 57 -70 181 -105 238 -61 98 -71 48 -13 -71 16 -34 34 -86 40 -116 7 -38
25 -75 63 -130 98 -139 100 -168 3 -37 -68 92 -82 120 -91 178 -4 26 -20 73
-36 105 -23 46 -29 71 -29 123 0 82 -15 136 -45 166 -31 31 -47 30 -65 -3z"/>
<path d="M3087 2170 c-30 -23 -47 -74 -47 -137 0 -34 -3 -41 -15 -37 -34 14
-74 -54 -129 -217 -46 -139 -117 -248 -203 -314 -65 -49 -65 -49 -39 -58 24
-8 33 -3 82 43 30 29 58 50 61 47 3 -4 -13 -27 -35 -54 -23 -26 -39 -49 -37
-51 8 -8 91 47 126 85 96 101 153 199 164 283 4 30 16 77 26 103 11 26 19 65
19 86 0 73 50 171 87 171 16 0 16 11 1 45 -14 30 -27 31 -61 5z m-76 -286
c-12 -24 -28 -72 -36 -105 -18 -78 -127 -259 -156 -259 -6 0 0 15 13 33 95
127 118 166 118 202 0 22 14 67 35 111 19 40 36 81 36 91 1 12 3 10 6 -5 3
-13 -5 -43 -16 -68z"/>
<path d="M1993 2156 c-45 -21 -83 -61 -83 -87 0 -13 -12 -36 -27 -53 l-28 -29
33 22 c17 12 32 31 32 41 0 83 139 123 252 72 104 -46 119 -168 34 -269 -15
-18 -23 -33 -18 -33 16 0 91 88 98 115 19 75 -24 159 -105 203 -53 30 -143 38
-188 18z"/>
<path d="M1523 2139 c-39 -11 -44 -22 -6 -13 23 6 25 4 19 -11 -7 -18 -6 -18
14 0 36 33 28 40 -27 24z"/>
<path d="M1413 2078 c-11 -13 -24 -30 -28 -38 -8 -16 -6 -14 34 33 14 15 22
27 19 27 -2 0 -14 -10 -25 -22z"/>
<path d="M1769 2083 c-13 -16 -12 -17 4 -4 16 13 21 21 13 21 -2 0 -10 -8 -17
-17z"/>
<path d="M1668 2063 c7 -3 16 -2 19 1 4 3 -2 6 -13 5 -11 0 -14 -3 -6 -6z"/>
<path d="M1910 2006 c0 -2 7 -7 16 -10 8 -3 12 -2 9 4 -6 10 -25 14 -25 6z"/>
<path d="M1365 1980 c-3 -5 -1 -10 4 -10 6 0 11 5 11 10 0 6 -2 10 -4 10 -3 0
-8 -4 -11 -10z"/>
<path d="M1395 1964 c-62 -66 -47 -161 35 -238 73 -68 139 -89 298 -92 l134
-3 43 -40 c34 -31 40 -41 27 -44 -12 -3 -10 -5 6 -6 12 -1 22 5 22 13 0 13
-36 65 -54 78 -13 9 -10 11 44 31 25 10 66 37 92 62 25 25 66 56 90 70 48 28
45 34 -5 9 -18 -9 -53 -36 -79 -61 -26 -24 -69 -53 -94 -63 -57 -25 -220 -44
-298 -35 -121 13 -225 75 -265 158 -33 67 -27 111 22 165 11 12 17 22 13 22
-4 0 -18 -12 -31 -26z"/>
<path d="M1790 1930 c0 -5 5 -10 11 -10 5 0 7 5 4 10 -3 6 -8 10 -11 10 -2 0
-4 -4 -4 -10z"/>
<path d="M2113 1893 c24 -6 21 -27 -5 -47 -20 -14 -21 -15 -3 -9 45 14 54 64
11 62 -16 -1 -17 -2 -3 -6z"/>
<path d="M1565 1849 c-33 -16 -49 -27 -35 -23 30 8 100 42 100 49 0 6 6 8 -65
-26z"/>
<path d="M1710 1847 c0 -2 15 -16 33 -33 l32 -29 -29 33 c-28 30 -36 37 -36
29z"/>
<path d="M1931 1847 c2 -1 13 -9 24 -17 19 -14 19 -14 6 3 -7 9 -18 17 -24 17
-6 0 -8 -1 -6 -3z"/>
<path d="M1780 1786 c0 -3 9 -10 20 -16 11 -6 20 -8 20 -6 0 3 -9 10 -20 16
-11 6 -20 8 -20 6z"/>
<path d="M1598 1543 c6 -2 18 -2 25 0 6 3 1 5 -13 5 -14 0 -19 -2 -12 -5z"/>
<path d="M2008 1543 c7 -3 16 -2 19 1 4 3 -2 6 -13 5 -11 0 -14 -3 -6 -6z"/>
<path d="M1720 1530 c8 -5 20 -10 25 -10 6 0 3 5 -5 10 -8 5 -19 10 -25 10 -5
0 -3 -5 5 -10z"/>
<path d="M1500 1520 c-18 -12 -2 -12 25 0 13 6 15 9 5 9 -8 0 -22 -4 -30 -9z"/>
<path d="M2178 1493 c7 -3 16 -2 19 1 4 3 -2 6 -13 5 -11 0 -14 -3 -6 -6z"/>
<path d="M2218 1483 c7 -3 16 -2 19 1 4 3 -2 6 -13 5 -11 0 -14 -3 -6 -6z"/>
<path d="M2258 1473 c7 -3 16 -2 19 1 4 3 -2 6 -13 5 -11 0 -14 -3 -6 -6z"/>
<path d="M1197 1463 c18 -2 50 -2 70 0 21 2 7 4 -32 4 -38 0 -55 -2 -38 -4z"/>
<path d="M2347 1463 c18 -2 50 -2 70 0 21 2 7 4 -32 4 -38 0 -55 -2 -38 -4z"/>
<path d="M1678 1294 c-57 -31 -54 -72 7 -94 24 -9 28 -9 18 1 -22 22 -14 47
22 69 19 12 32 26 29 32 -4 6 -10 5 -15 -3 -6 -10 -9 -11 -9 -1 0 16 -18 15
-52 -4z"/>
<path d="M1800 979 c0 -5 5 -7 10 -4 6 3 10 8 10 11 0 2 -4 4 -10 4 -5 0 -10
-5 -10 -11z"/>
<path d="M2844 929 c-17 -19 -16 -23 46 -149 60 -121 65 -128 82 -113 16 14
16 18 2 44 -17 34 -11 49 35 93 28 27 32 28 61 16 24 -10 33 -10 45 0 8 7 15
16 15 20 0 4 -30 19 -67 33 -38 14 -98 36 -134 50 -67 26 -67 26 -85 6z m100
-59 c25 -10 46 -23 46 -27 -1 -12 -37 -53 -47 -53 -9 0 -53 74 -53 89 0 14 1
14 54 -9z"/>
<path d="M669 917 c-45 -30 -79 -83 -79 -121 0 -75 96 -150 149 -117 21 13 5
50 -19 44 -55 -15 -101 37 -80 91 12 34 80 86 111 86 34 0 67 -37 71 -80 4
-47 33 -54 43 -11 8 36 -20 89 -60 115 -35 23 -96 20 -136 -7z"/>
<path d="M1746 862 c-2 -4 -1 -14 5 -22 7 -12 9 -10 9 8 0 23 -5 28 -14 14z"/>
<path d="M2761 846 c-7 -8 -9 -35 -4 -76 6 -60 5 -63 -13 -56 -86 35 -105 39
-122 22 -9 -8 -14 -17 -11 -20 2 -2 38 -16 79 -30 61 -22 83 -36 117 -74 38
-43 43 -46 58 -31 15 15 13 19 -19 57 -29 36 -35 52 -41 109 -10 115 -18 131
-44 99z"/>
<path d="M846 714 c-75 -105 -86 -128 -61 -137 11 -5 25 7 47 38 18 25 35 45
38 45 10 0 90 -59 90 -66 0 -7 -22 -48 -29 -54 -25 -21 -33 -41 -21 -55 7 -8
16 -15 21 -15 4 0 33 37 65 83 31 45 66 92 77 104 16 19 18 25 7 38 -18 22
-24 19 -55 -25 -15 -22 -32 -40 -37 -40 -13 0 -88 62 -88 72 0 5 12 25 26 44
22 28 24 37 14 49 -7 8 -15 15 -19 15 -3 0 -37 -43 -75 -96z"/>
<path d="M2521 673 c-19 -17 -20 -23 -12 -78 5 -33 13 -95 17 -137 3 -43 8
-78 11 -78 2 0 13 5 25 11 16 9 19 17 14 44 -6 31 -4 33 47 61 l54 28 28 -22
c22 -18 31 -20 48 -10 21 11 21 11 -5 32 -14 12 -64 54 -111 94 -46 39 -87 72
-90 72 -2 0 -14 -8 -26 -17z m86 -87 l37 -34 -34 -21 c-19 -11 -37 -17 -41
-13 -4 4 -10 28 -13 55 -9 57 1 60 51 13z"/>
<path d="M1119 649 c-101 -190 -111 -213 -93 -226 10 -7 19 -12 20 -10 1 1 30
53 63 116 48 89 59 116 50 127 -16 19 -26 17 -40 -7z"/>
<path d="M1194 583 c-38 -91 -74 -199 -69 -210 9 -26 35 -12 51 26 14 36 55
68 73 57 4 -3 13 -37 20 -76 11 -57 17 -73 35 -80 11 -4 24 -6 27 -4 4 2 -2
41 -13 86 -10 45 -16 88 -13 95 2 8 30 25 62 39 43 19 53 28 42 35 -24 15 -46
10 -113 -23 -36 -18 -68 -29 -72 -25 -4 4 1 27 10 52 10 24 15 49 11 55 -13
21 -35 9 -51 -27z"/>
<path d="M2240 548 c0 -17 79 -231 88 -240 8 -8 149 38 166 53 5 4 6 14 3 22
-5 13 -16 11 -72 -9 -57 -21 -66 -22 -71 -9 -4 9 -21 55 -39 103 -25 69 -36
88 -53 90 -13 2 -22 -2 -22 -10z"/>
<path d="M1467 533 c-14 -23 -68 -237 -63 -249 12 -32 35 -13 51 44 9 31 25
86 36 121 11 35 18 70 15 77 -6 15 -32 19 -39 7z"/>
<path d="M2093 519 c-12 -4 -25 -18 -28 -31 -28 -118 -55 -251 -52 -254 1 -2
13 -1 24 2 14 4 24 17 28 35 8 36 8 35 75 44 53 6 57 6 68 -19 8 -18 19 -26
37 -26 31 0 31 3 -4 59 -16 25 -47 78 -70 118 -23 40 -45 74 -49 76 -4 3 -17
1 -29 -4z m48 -111 c11 -22 18 -42 16 -44 -3 -3 -21 -8 -41 -11 l-36 -6 6 34
c15 93 20 95 55 27z"/>
<path d="M1522 503 c2 -13 15 -19 42 -21 l39 -3 -7 -60 c-21 -196 -21 -179 2
-179 14 0 23 8 27 23 4 21 25 182 25 199 0 4 20 5 45 1 40 -5 45 -4 45 14 0
18 -10 22 -88 32 -122 15 -134 15 -130 -6z"/>
<path d="M1816 499 c-40 -11 -66 -38 -66 -68 0 -44 21 -61 110 -87 55 -16 68
-36 40 -64 -27 -27 -66 -25 -94 5 -13 14 -31 25 -40 25 -27 0 -18 -36 16 -65
28 -23 39 -27 80 -23 94 10 131 88 67 142 -17 14 -36 26 -42 26 -7 0 -29 5
-49 11 -30 8 -38 15 -38 33 0 17 7 26 24 30 28 7 76 -8 76 -24 0 -13 37 -13
46 1 19 31 -75 73 -130 58z"/>
</g>
</svg>
